<?xml version="1.0" encoding="UTF-8"?>
<svg version="1.1" xmlns="http://www.w3.org/2000/svg" width="512" height="512">
<path d="M0 0 C55.34976513 46.4556628 84.36162941 116.04871508 91.21484375 186.953125 C91.52879372 190.64291907 91.57016831 194.28256961 91.51171875 197.984375 C92.2284375 198.231875 92.94515625 198.479375 93.68359375 198.734375 C116.2273384 208.69846103 129.61671143 237.67493514 138.51171875 258.984375 C148.70607002 285.40382409 153.89848157 313.33750736 153.82739258 341.60986328 C153.82423831 344.21820188 153.84778408 346.82539446 153.87304688 349.43359375 C153.93165076 364.8316731 152.52998205 380.41092443 147.88671875 395.171875 C147.63583496 395.98374268 147.38495117 396.79561035 147.12646484 397.63208008 C141.51076102 414.85636568 132.84781967 429.27178784 116.51171875 437.984375 C108.42827542 441.49228437 98.11385494 441.19301593 89.82421875 438.421875 C74.16579878 431.77960064 61.32255324 419.44158934 52.51171875 404.984375 C52.13112305 404.36256348 51.75052734 403.74075195 51.35839844 403.10009766 C48.70318115 398.7511767 46.09440955 394.37670629 43.51171875 389.984375 C43.1650415 390.4469873 42.81836426 390.90959961 42.46118164 391.38623047 C36.39305236 399.46168769 30.36512105 407.467904 23.4765625 414.8671875 C21.64864712 416.83682992 19.923927 418.86215148 18.19921875 420.921875 C-7.36584692 450.04737219 -46.7935465 471.39863313 -85.48828125 474.984375 C-104.31619821 476.07024249 -123.16582734 475.87338061 -141.48828125 470.984375 C-142.25414551 470.78070313 -143.02000977 470.57703125 -143.80908203 470.3671875 C-162.39006129 465.20292648 -180.00513528 456.43185754 -195.48828125 444.984375 C-196.06594238 444.56075684 -196.64360352 444.13713867 -197.23876953 443.70068359 C-217.00456947 429.06485456 -233.84360342 411.45139175 -247.48828125 390.984375 C-248.14828125 390.984375 -248.80828125 390.984375 -249.48828125 390.984375 C-249.96394531 391.93183594 -249.96394531 391.93183594 -250.44921875 392.8984375 C-260.63431493 412.42456111 -275.37246751 431.8578624 -296.9765625 439.1640625 C-307.88907682 441.71314816 -318.34291214 440.37167818 -327.88671875 434.51171875 C-345.57680437 421.74225421 -353.32258852 398.89549215 -356.72557068 378.13047791 C-358.42409374 367.01425915 -359.00746461 356.15806811 -358.92578125 344.921875 C-358.9230722 344.03795074 -358.92036316 343.15402649 -358.91757202 342.24331665 C-358.84659674 326.87034779 -357.65743126 312.06497953 -354.48828125 296.984375 C-354.30104492 296.08041992 -354.11380859 295.17646484 -353.92089844 294.24511719 C-348.55584899 269.16188947 -339.30690707 242.44154523 -323.48828125 221.984375 C-323.08673828 221.46230469 -322.68519531 220.94023437 -322.27148438 220.40234375 C-305.84875496 199.31210177 -305.84875496 199.31210177 -296.48828125 197.984375 C-296.44960938 196.59605469 -296.44960938 196.59605469 -296.41015625 195.1796875 C-294.95847604 157.08157835 -285.07987886 118.2642607 -268.48828125 83.984375 C-268.17036621 83.31438477 -267.85245117 82.64439453 -267.52490234 81.95410156 C-244.57696911 33.68310654 -207.22851631 -8.57201364 -156.48828125 -28.015625 C-155.35777344 -28.45519531 -154.22726563 -28.89476562 -153.0625 -29.34765625 C-100.78721795 -48.25816812 -42.35194373 -34.6510421 0 0 Z " fill="#3B96D1" transform="translate(358.48828125,37.015625)"/>
<path d="M0 0 C1.64066844 0.90616991 3.29903069 1.78009719 4.95849609 2.65136719 C13.11484036 7.10803634 19.93318917 12.73068479 26.75927734 18.97167969 C28.18433594 20.27105469 28.18433594 20.27105469 29.63818359 21.59667969 C53.73806727 44.63383734 68.25253756 76.79868528 69.23225403 110.06573486 C69.70428312 132.08048754 67.33744372 151.85605569 52.44677734 169.34667969 C38.54184708 183.83782117 19.11519606 190.44011153 -0.36572266 193.15917969 C-1.46787109 193.32353516 -2.57001953 193.48789063 -3.70556641 193.65722656 C-6.88208159 194.12258792 -10.05513043 194.57272196 -13.24072266 194.97167969 C-14.23905373 195.10381363 -14.23905373 195.10381363 -15.2575531 195.23861694 C-23.57007854 196.21891292 -31.90342735 196.15498775 -40.26025391 196.17480469 C-41.48301309 196.17904575 -41.48301309 196.17904575 -42.73047447 196.1833725 C-47.06275113 196.19830943 -51.3949951 196.20756795 -55.72729492 196.21191406 C-59.24400433 196.21625916 -62.76046292 196.23000281 -66.27709961 196.25292969 C-148.44748794 196.77768051 -148.44748794 196.77768051 -174.88134766 173.30761719 C-188.44345032 159.8802374 -195.55995793 141.99247896 -195.79714966 122.97229004 C-195.79687158 120.90897257 -195.772162 118.84724404 -195.74072266 116.78417969 C-195.73518372 116.06722931 -195.72964478 115.35027893 -195.72393799 114.61160278 C-195.41136793 79.97258897 -182.15963038 48.95649239 -158.24072266 23.97167969 C-157.56912109 23.23691406 -156.89751953 22.50214844 -156.20556641 21.74511719 C-116.68124211 -20.0694016 -49.44373567 -27.33070816 0 0 Z " fill="#65DBB8" transform="translate(319.24072265625,60.0283203125)"/>
<path d="M0 0 C12.82864687 11.19214793 21.91787467 25.94250452 25.1875 42.75 C25.35990707 43.54507965 25.53231415 44.3401593 25.70994568 45.15933228 C26.39637891 50.32053286 26.31773236 55.42944801 26.30102539 60.63037109 C26.30117142 61.82118286 26.30131744 63.01199463 26.3014679 64.2388916 C26.30089214 67.49051607 26.29588966 70.74209706 26.28889394 73.9937129 C26.2826269 77.39698058 26.28205395 80.80024918 26.28086853 84.20352173 C26.27776508 90.64195295 26.269565 97.08036712 26.25951904 103.51879084 C26.24832726 110.85131531 26.24283973 118.1838406 26.23782361 125.51637149 C26.22738155 140.59425715 26.20980123 155.67212687 26.1875 170.75 C23.949587 171.88007173 21.71051008 173.00772644 19.47070312 174.1340332 C18.84093567 174.45235359 18.21116821 174.77067398 17.56231689 175.09864044 C-16.88566208 192.39642293 -59.24788614 191.89996029 -95.3046875 180.29638672 C-100.09043959 178.62350154 -104.57698229 176.41805242 -109.09570312 174.1340332 C-110.0666391 173.64578945 -110.0666391 173.64578945 -111.05718994 173.14768219 C-112.64304733 172.34995202 -114.22787805 171.55018145 -115.8125 170.75 C-115.90635758 154.98916775 -115.97668049 139.22841221 -116.01974869 123.46736908 C-116.04028645 116.14758404 -116.06823653 108.82797364 -116.11425781 101.50830078 C-116.15439732 95.12102233 -116.17999647 88.7338705 -116.18885398 82.3464694 C-116.19402356 78.97100272 -116.20815404 75.59618219 -116.23542023 72.22077942 C-116.36822643 55.08680383 -116.39408952 38.85822297 -108.0625 23.375 C-107.71670898 22.71419434 -107.37091797 22.05338867 -107.01464844 21.37255859 C-97.7142657 4.12511264 -82.75313024 -6.84516787 -64.60546875 -13.41015625 C-42.23005259 -19.58565622 -18.17955472 -14.13403489 0 0 Z " fill="#2980B9" transform="translate(300.8125,324.25)"/>
<path d="M0 0 C31.97121449 20.7663496 47.30797449 59.70917713 55.22680664 95.50561523 C58.63550944 111.58108331 60.35693966 127.21391336 60.31567383 143.62548828 C60.31251956 146.23382688 60.33606533 148.84101946 60.36132812 151.44921875 C60.41993201 166.8472981 59.0182633 182.42654943 54.375 197.1875 C54.12411621 197.99936768 53.87323242 198.81123535 53.61474609 199.64770508 C47.99904227 216.87199068 39.33610092 231.28741284 23 240 C14.91655667 243.50790937 4.60213619 243.20864093 -3.6875 240.4375 C-19.32838514 233.80266389 -32.21856214 221.45966084 -41 207 C-41.60714844 206.06027344 -42.21429688 205.12054688 -42.83984375 204.15234375 C-55.2207387 183.97516248 -62.71684088 159.97642357 -68 137 C-68.18175781 136.3090625 -68.36351562 135.618125 -68.55078125 134.90625 C-72.09312797 120.84502638 -72.35104284 106.04773885 -72.31567383 91.6315918 C-72.3124978 88.93562884 -72.33615629 86.24075188 -72.36132812 83.54492188 C-72.46230079 55.32868879 -66.16173468 25.19160097 -46.296875 4.09375 C-33.4467203 -7.61999647 -14.81539975 -8.1411355 0 0 Z " fill="#287FB8" transform="translate(452,235)"/>
<path d="M0 0 C16.81277838 10.8266273 26.26495286 30.04273259 30.47558594 49.15917969 C32.68271294 60.04292638 34.15201174 70.91593196 34.16796875 82.03125 C34.17129715 82.86603882 34.17462555 83.70082764 34.17805481 84.56091309 C34.18308431 86.3189235 34.18546438 88.07694333 34.18530273 89.83496094 C34.18747169 92.46566387 34.2056219 95.09593442 34.22460938 97.7265625 C34.26738732 110.73044807 33.79858082 123.88608515 30.60546875 136.5625 C30.12186916 138.50937834 29.7006401 140.47171346 29.30078125 142.4375 C26.72331835 154.80809527 22.44768927 166.47364585 18.00732422 178.28369141 C17.19838064 180.46505501 16.4266095 182.64863469 15.69140625 184.85546875 C11.01878718 198.35985135 2.56862939 211.43427395 -7 222 C-7.4232959 222.47630859 -7.8465918 222.95261719 -8.28271484 223.44335938 C-17.63855483 233.85119547 -28.90987507 242.89098751 -43.359375 244.3359375 C-55.7508645 244.4786966 -64.94272812 241.6227902 -74 233 C-94.27074977 212.49802495 -98.58466624 178.95424936 -98.45620728 151.51083374 C-98.45003387 150.66163361 -98.44386047 149.81243347 -98.4375 148.9375 C-98.43479095 148.05357574 -98.43208191 147.16965149 -98.42929077 146.25894165 C-98.35831549 130.88597279 -97.16915001 116.08060453 -94 101 C-93.81276367 100.09604492 -93.62552734 99.19208984 -93.43261719 98.26074219 C-88.06756774 73.17751447 -78.81862582 46.45717023 -63 26 C-62.59845703 25.47792969 -62.19691406 24.95585937 -61.78320312 24.41796875 C-47.83210202 6.50181786 -23.95567426 -13.117476 0 0 Z " fill="#287FB8" transform="translate(98,233)"/>
<path d="M0 0 C1.64066844 0.90616991 3.29903069 1.78009719 4.95849609 2.65136719 C13.11484036 7.10803634 19.93318917 12.73068479 26.75927734 18.97167969 C28.18433594 20.27105469 28.18433594 20.27105469 29.63818359 21.59667969 C53.73806727 44.63383734 68.25253756 76.79868528 69.23225403 110.06573486 C69.70428312 132.08048754 67.33744372 151.85605569 52.44677734 169.34667969 C38.54184708 183.83782117 19.11519606 190.44011153 -0.36572266 193.15917969 C-1.46787109 193.32353516 -2.57001953 193.48789063 -3.70556641 193.65722656 C-6.88208159 194.12258792 -10.05513043 194.57272196 -13.24072266 194.97167969 C-14.23905373 195.10381363 -14.23905373 195.10381363 -15.2575531 195.23861694 C-23.57007854 196.21891292 -31.90342735 196.15498775 -40.26025391 196.17480469 C-41.48301309 196.17904575 -41.48301309 196.17904575 -42.73047447 196.1833725 C-47.06275113 196.19830943 -51.3949951 196.20756795 -55.72729492 196.21191406 C-59.24400433 196.21625916 -62.76046292 196.23000281 -66.27709961 196.25292969 C-148.44748794 196.77768051 -148.44748794 196.77768051 -174.88134766 173.30761719 C-188.44345032 159.8802374 -195.55995793 141.99247896 -195.79714966 122.97229004 C-195.79687158 120.90897257 -195.772162 118.84724404 -195.74072266 116.78417969 C-195.73518372 116.06722931 -195.72964478 115.35027893 -195.72393799 114.61160278 C-195.41136793 79.97258897 -182.15963038 48.95649239 -158.24072266 23.97167969 C-157.56912109 23.23691406 -156.89751953 22.50214844 -156.20556641 21.74511719 C-116.68124211 -20.0694016 -49.44373567 -27.33070816 0 0 Z M-99.24072266 6.97167969 C-99.93584961 7.19629883 -100.63097656 7.42091797 -101.34716797 7.65234375 C-117.05627294 12.93484748 -130.11524457 21.88229052 -142.24072266 32.97167969 C-143.05154297 33.7 -143.86236328 34.42832031 -144.69775391 35.17871094 C-165.01475597 54.35710693 -177.28544426 82.96551359 -178.59228516 110.68652344 C-178.84470789 120.75262856 -178.42592218 130.33405882 -175.24072266 139.97167969 C-174.95068359 140.87015625 -174.66064453 141.76863281 -174.36181641 142.69433594 C-170.16163651 154.345881 -162.21686809 162.77721489 -151.11572266 168.15917969 C-124.03763358 179.85766287 -93.75498992 178.19708841 -64.83911133 178.2668457 C-61.58468622 178.27565433 -58.33069515 178.29644594 -55.07641602 178.32836914 C-5.30343282 179.79167721 -5.30343282 179.79167721 38.07177734 159.28417969 C45.38688731 151.38446053 48.68613237 142.38214869 50.75927734 131.97167969 C50.94232422 131.23820313 51.12537109 130.50472656 51.31396484 129.74902344 C55.82659719 101.60444804 46.45506127 72.38691743 30.34521484 49.46386719 C11.185787 23.2330148 -16.10546382 7.45469145 -48.0480957 2.37524414 C-65.43707998 0.17718717 -82.60175648 1.58280161 -99.24072266 6.97167969 Z " fill="#E8EEEF" transform="translate(319.24072265625,60.0283203125)"/>
<path d="M0 0 C3.23128051 1.42176343 5.35909765 3.16783467 7.875 5.625 C27.01424124 22.82846154 50.31985496 24.96271377 75 24 C93.86742329 22.72250075 111.51049849 15.98186423 128 7 C126.15237828 24.3579198 120.76484701 40.05818616 114.90917969 56.43164062 C114.16838614 58.52432273 113.45849413 60.62792331 112.7578125 62.734375 C108.04831671 76.27847239 99.60397054 89.39525008 90 100 C89.5767041 100.47630859 89.1534082 100.95261719 88.71728516 101.44335938 C79.36144517 111.85119547 68.09012493 120.89098751 53.640625 122.3359375 C41.2491355 122.4786966 32.05727188 119.6227902 23 111 C3.81084174 91.591954 -1.32234553 59.76164322 -1.32878113 33.62428284 C-1.31793928 31.85072124 -1.30210671 30.07718303 -1.28125 28.30371094 C-1.24944396 25.57733732 -1.24019266 22.85154288 -1.234375 20.125 C-1.2252252 18.36718045 -1.21485599 16.60936672 -1.203125 14.8515625 C-1.19887512 14.04844635 -1.19462524 13.2453302 -1.19024658 12.4178772 C-1.1363281 8.176007 -0.83211196 4.17806916 0 0 Z " fill="#275680" transform="translate(1,355)"/>
<path d="M0 0 C0.99444572 4.99315382 1.17630793 9.78383441 1.203125 14.8515625 C1.20882507 15.70567719 1.21452515 16.55979187 1.22039795 17.43978882 C1.22982155 19.25021134 1.23637141 21.06065082 1.24023438 22.87109375 C1.24979801 25.56803969 1.28078504 28.26417475 1.3125 30.9609375 C1.40841919 46.54744878 0.07708501 62.23955504 -4.625 77.1875 C-4.87588379 77.99936768 -5.12676758 78.81123535 -5.38525391 79.64770508 C-11.00095773 96.87199068 -19.66389908 111.28741284 -36 120 C-44.08344333 123.50790937 -54.39786381 123.20864093 -62.6875 120.4375 C-78.32838514 113.80266389 -91.21856214 101.45966084 -100 87 C-100.60714844 86.06027344 -101.21429688 85.12054688 -101.83984375 84.15234375 C-112.16539175 67.3247675 -118.61640262 47.91232656 -124 29 C-124.32742188 27.85015625 -124.65484375 26.7003125 -124.9921875 25.515625 C-126.63601187 19.34736973 -127.43700647 13.34979046 -128 7 C-127.50298584 7.24645264 -127.00597168 7.49290527 -126.49389648 7.74682617 C-96.64048876 22.45894257 -65.48868777 29.9200657 -32.70703125 20.00390625 C-21.72491846 16.21199395 -10.9633606 9.99959285 -3.234375 1.21484375 C-2 0 -2 0 0 0 Z " fill="#275680" transform="translate(511,355)"/>
<path d="M0 0 C5.75516415 2.6626977 9.77628623 7.03895909 12 13 C12.58977587 17.49813526 12.56064862 21.96066857 12.53125 26.4921875 C12.5350769 27.7927005 12.53890381 29.0932135 12.54284668 30.43313599 C12.54872169 33.1784377 12.54024744 35.92321647 12.52148438 38.66845703 C12.49873989 42.16420279 12.51180002 45.65871678 12.53577423 49.15441704 C12.55382262 52.51710208 12.54113064 55.87946762 12.53125 59.2421875 C12.53934692 60.48620331 12.54744385 61.73021912 12.55578613 63.01193237 C12.48009209 70.08370253 11.8718165 75.93748267 8 82 C3.9736076 85.92573259 -0.02515169 88.28116528 -5.6875 88.5 C-10.68014019 88.3746309 -13.85271399 86.87213541 -17.9921875 84.19140625 C-24.51201342 77.07540948 -24.5924048 68.70304757 -24.53125 59.49609375 C-24.5350769 58.21823502 -24.53890381 56.94037628 -24.54284668 55.62379456 C-24.54555871 52.93296084 -24.54029114 50.24359989 -24.52148438 47.55297852 C-24.4986723 44.12444532 -24.51185177 40.69716346 -24.53577423 37.2686758 C-24.5537948 33.96943846 -24.54113794 30.67034749 -24.53125 27.37109375 C-24.54339539 25.53954994 -24.54339539 25.53954994 -24.55578613 23.67100525 C-24.46806246 15.65903787 -23.48216362 10.24190841 -18.28125 3.90625 C-12.57767716 -0.59657066 -7.11320318 -1.42455279 0 0 Z " fill="#46515E" transform="translate(209,115)"/>
<path d="M0 0 C5.15160382 2.40149953 8.32675535 5.3655221 10.78652954 10.57635498 C11.80357998 13.57769505 11.96976154 15.9573123 11.99365234 19.12207031 C12.00641205 20.2738678 12.01917175 21.42566528 12.03231812 22.61236572 C12.03454376 23.84887878 12.03676941 25.08539185 12.0390625 26.359375 C12.0457193 27.64052185 12.0523761 28.9216687 12.05923462 30.24163818 C12.07118739 32.95165372 12.07491771 35.66154201 12.07373047 38.37158203 C12.0735278 41.82246078 12.10078286 45.27251112 12.13527489 48.72319412 C12.16304222 52.03943142 12.16169728 55.35552324 12.1640625 58.671875 C12.17843353 59.90029114 12.19280457 61.12870728 12.20761108 62.39434814 C12.17034845 69.44570638 11.56064381 75.23640563 7.703125 81.28125 C3.63444967 85.24820845 -0.32695456 87.56391139 -6.046875 87.71875 C-11.53185228 87.58931101 -15.27351849 86.00726839 -19.296875 82.28125 C-23.00626286 77.36765507 -24.41418952 72.64117193 -24.48974609 66.55981445 C-24.50580902 65.38461746 -24.52187195 64.20942047 -24.53842163 62.99861145 C-24.58293609 57.61894272 -24.62438082 52.23941937 -24.64697266 46.85961914 C-24.66028579 44.02432809 -24.68809091 41.18976125 -24.72900391 38.35473633 C-24.78803153 34.26371245 -24.80566098 30.17345911 -24.8203125 26.08203125 C-24.84298187 24.82030594 -24.86565125 23.55858063 -24.88900757 22.25862122 C-24.87157796 14.97523062 -24.24470261 9.83952827 -19.296875 4.28125 C-13.47240783 -1.00140627 -7.67615716 -2.40206278 0 0 Z " fill="#46515E" transform="translate(315.296875,115.71875)"/>
</svg>
