<?xml version="1.0" encoding="UTF-8"?>
<svg version="1.1" xmlns="http://www.w3.org/2000/svg" width="512" height="512">
<path d="M0 0 C1.45108658 0.00273422 1.45108658 0.00273422 2.93148804 0.00552368 C17.26440977 0.05095174 31.21023917 0.55983928 45.3125 3.3125 C46.65803955 3.55395752 46.65803955 3.55395752 48.03076172 3.80029297 C96.71843124 12.61028149 141.74255908 36.05356547 177.3125 70.3125 C178.3015332 71.26068604 178.3015332 71.26068604 179.31054688 72.22802734 C188.79880305 81.37247479 197.5387044 90.66984009 205.3125 101.3125 C206.17056152 102.46355017 207.02863451 103.61459177 207.88671875 104.765625 C213.92427396 112.95525981 219.30707302 121.45788276 224.3125 130.3125 C224.7146875 131.01971191 225.116875 131.72692383 225.53125 132.45556641 C238.54775099 155.57510937 247.281052 180.72419753 252.625 206.6875 C252.77235596 207.39801514 252.91971191 208.10853027 253.0715332 208.84057617 C256.05794017 224.48291051 256.68730954 240.11926093 256.625 256 C256.62226578 257.45108658 256.62226578 257.45108658 256.61947632 258.93148804 C256.57404826 273.26440977 256.06516072 287.21023917 253.3125 301.3125 C253.15152832 302.20952637 252.99055664 303.10655273 252.82470703 304.03076172 C244.01471851 352.71843124 220.57143453 397.74255908 186.3125 433.3125 C185.68037598 433.97185547 185.04825195 434.63121094 184.39697266 435.31054688 C175.25252521 444.79880305 165.95515991 453.5387044 155.3125 461.3125 C154.16144983 462.17056152 153.01040823 463.02863451 151.859375 463.88671875 C143.66974019 469.92427396 135.16711724 475.30707302 126.3125 480.3125 C125.60528809 480.7146875 124.89807617 481.116875 124.16943359 481.53125 C101.04989063 494.54775099 75.90080247 503.281052 49.9375 508.625 C49.22698486 508.77235596 48.51646973 508.91971191 47.78442383 509.0715332 C32.14208949 512.05794017 16.50573907 512.68730954 0.625 512.625 C-0.34239105 512.62317719 -1.3097821 512.62135437 -2.30648804 512.61947632 C-16.63940977 512.57404826 -30.58523917 512.06516072 -44.6875 509.3125 C-45.58452637 509.15152832 -46.48155273 508.99055664 -47.40576172 508.82470703 C-96.09343124 500.01471851 -141.11755908 476.57143453 -176.6875 442.3125 C-177.34685547 441.68037598 -178.00621094 441.04825195 -178.68554688 440.39697266 C-188.17380305 431.25252521 -196.9137044 421.95515991 -204.6875 411.3125 C-205.54556152 410.16144983 -206.40363451 409.01040823 -207.26171875 407.859375 C-213.29927396 399.66974019 -218.68207302 391.16711724 -223.6875 382.3125 C-224.0896875 381.60528809 -224.491875 380.89807617 -224.90625 380.16943359 C-237.92275099 357.04989063 -246.656052 331.90080247 -252 305.9375 C-252.22103394 304.87172729 -252.22103394 304.87172729 -252.4465332 303.78442383 C-255.43294017 288.14208949 -256.06230954 272.50573907 -256 256.625 C-255.99817719 255.65760895 -255.99635437 254.6902179 -255.99447632 253.69351196 C-255.94904826 239.36059023 -255.44016072 225.41476083 -252.6875 211.3125 C-252.44604248 209.96696045 -252.44604248 209.96696045 -252.19970703 208.59423828 C-243.38971851 159.90656876 -219.94643453 114.88244092 -185.6875 79.3125 C-185.05537598 78.65314453 -184.42325195 77.99378906 -183.77197266 77.31445312 C-174.62752521 67.82619695 -165.33015991 59.0862956 -154.6875 51.3125 C-153.53644983 50.45443848 -152.38540823 49.59636549 -151.234375 48.73828125 C-143.04474019 42.70072604 -134.54211724 37.31792698 -125.6875 32.3125 C-124.98028809 31.9103125 -124.27307617 31.508125 -123.54443359 31.09375 C-100.42489063 18.07724901 -75.27580247 9.343948 -49.3125 4 C-48.24672729 3.77896606 -48.24672729 3.77896606 -47.15942383 3.5534668 C-31.51708949 0.56705983 -15.88073907 -0.06230954 0 0 Z M-66.8125 140.5 C-84.40136993 161.23102944 -90.88544266 185.45595435 -88.6875 212.3125 C-85.81643808 234.41329664 -74.23579872 254.935176 -57.2578125 269.33984375 C-36.00601453 285.65011423 -11.86129655 292.45286041 14.84960938 288.98291016 C38.50691061 284.9533159 59.72417311 271.61041674 73.62890625 252.0546875 C87.48143119 231.62456134 92.74853996 207.8829858 88.58203125 183.421875 C83.79934308 159.92733697 70.15913867 139.27170866 50.30224609 125.80786133 C12.70367774 101.13093588 -36.1569458 107.7805075 -66.8125 140.5 Z M-41.6875 295.3125 C-42.44933594 295.48910156 -43.21117187 295.66570312 -43.99609375 295.84765625 C-89.50245668 306.7983853 -129.12054271 337.89576609 -153.5 377.3125 C-162.63878967 391.54930331 -162.63878967 391.54930331 -167.6875 407.3125 C-166.42727957 409.29887648 -166.42727957 409.29887648 -164.453125 411.10546875 C-163.38263916 412.16773682 -163.38263916 412.16773682 -162.29052734 413.25146484 C-161.51402832 413.99348145 -160.7375293 414.73549805 -159.9375 415.5 C-159.15197754 416.26521973 -158.36645508 417.03043945 -157.55712891 417.81884766 C-151.84247523 423.33397553 -146.03448054 428.53004127 -139.6875 433.3125 C-139.13416992 433.73692383 -138.58083984 434.16134766 -138.01074219 434.59863281 C-128.94923143 441.53612151 -119.61516046 447.6919323 -109.6875 453.3125 C-108.73399658 453.86502441 -108.73399658 453.86502441 -107.76123047 454.42871094 C-79.07191878 470.972235 -44.0936962 481.3226809 -10.83203125 481.515625 C-10.01635178 481.52268463 -9.2006723 481.52974426 -8.36027527 481.53701782 C17.12272235 481.76348266 17.12272235 481.76348266 42.3125 478.3125 C43.25867188 478.11382324 44.20484375 477.91514648 45.1796875 477.71044922 C93.68841078 467.19760091 133.97258616 442.67918868 168.3125 407.3125 C153.33429594 364.03376968 119.44373916 328.91378084 78.8828125 308.4765625 C54.33351318 296.59234832 28.14644971 290.86938121 0.9375 290.9375 C0.15313568 290.93771149 -0.63122864 290.93792297 -1.43936157 290.93814087 C-15.15862246 290.97486387 -28.30180199 292.13943815 -41.6875 295.3125 Z " fill="#000000" transform="translate(255.6875,-0.3125)"/>
</svg>
